# xmcd
#
# Track frame offsets:
#	150
#	17135
#	29810
#	47035
#	63780
#	77460
#	93580
#	113405
#	131320
#	152110
#	165045
#	182060
#	198305
#	219485
#	234770
#	249205
#
# Disc length: 3553 seconds
#
# Revision: 3
# Processed by: cddbd v1.5.2PL0 Copyright (c) Steve Scherf et al.
# Submitted via: EasyCDDAExtractor 16.1.0.1
#
DISCID=ba0ddf10
DTITLE=Gunter Gabriel - Hey Boss - Ich brauch mehr Geld
DYEAR=2000
DGENRE=Alternative
TTITLE0=Komm Unter Meine Decke
TTITLE1=Hey Boss, Ich Brauch Mehr Geld
TTITLE2=Mit Dem Hammer In Der Hand
TTITLE3=Ich Schlaf Nicht Gern Allein Ein 
TTITLE4=Ohne Moos, Nichts Los
TTITLE5=Willy Klein, Der Fernsehmann
TTITLE6=Mädchen Ab 30
TTITLE7=Intercity Linie Nummer 4
TTITLE8=Er Ist Ein Kerl
TTITLE9=Papa Trinkt Bier
TTITLE10=Hey Lisa ( Hey Yvonne)
TTITLE11=Ich Bin CB-Funker
TTITLE12=Franky´s Curry Station
TTITLE13=Ich Werd' Gesucht In Bremerhaven
TTITLE14=Deutschland Ist...
TTITLE15=Rheinhausen, Du Darfst Nicht Untergehen
EXTD=YEAR: 2000
EXTT0=
EXTT1=
EXTT2=
EXTT3=
EXTT4=
EXTT5=
EXTT6=
EXTT7=
EXTT8=
EXTT9=
EXTT10=
EXTT11=
EXTT12=
EXTT13=
EXTT14=
EXTT15=
PLAYORDER=
